<?xml version="1.0" standalone="no"?>
<!DOCTYPE svg PUBLIC "-//W3C//DTD SVG 20010904//EN"
 "http://www.w3.org/TR/2001/REC-SVG-20010904/DTD/svg10.dtd">
<svg version="1.0" xmlns="http://www.w3.org/2000/svg"
 width="1111.000000pt" height="135.000000pt" viewBox="0 0 1111.000000 135.000000"
 preserveAspectRatio="xMidYMid meet">
<metadata>
Created by potrace 1.16, written by Peter Selinger 2001-2019
</metadata>
<g transform="translate(0.000000,135.000000) scale(0.100000,-0.100000)"
fill="#000000" stroke="none">
<path d="M5300 1280 c-150 -20 -254 -73 -365 -185 -219 -218 -252 -529 -84
-780 179 -267 513 -358 798 -218 106 52 232 178 284 284 111 226 80 483 -83
678 -54 65 -151 139 -222 171 -97 43 -232 63 -328 50z m-190 -275 l0 -85 -85
0 -85 0 0 85 0 85 85 0 85 0 0 -85z m391 69 c57 -17 105 -42 153 -82 l29 -23
64 63 63 62 0 -437 0 -437 -437 0 -437 0 62 63 63 64 -23 29 c-74 90 -102 179
-96 308 3 76 9 102 35 159 l32 67 50 0 50 0 -35 -51 c-88 -131 -83 -301 13
-421 l30 -37 253 254 254 254 -24 26 c-38 40 -123 76 -199 82 -83 7 -158 -13
-230 -61 l-51 -35 0 49 c0 48 1 50 43 71 23 12 60 28 82 35 57 18 191 17 256
-2z"/>
<path d="M4990 1005 c0 -33 2 -35 35 -35 33 0 35 2 35 35 0 33 -2 35 -35 35
-33 0 -35 -2 -35 -35z"/>
<path d="M5732 825 l-3 -90 -22 55 c-12 30 -25 55 -29 55 -4 0 -119 -111 -255
-247 l-248 -247 43 -20 c23 -12 50 -22 60 -23 9 -1 -23 -5 -73 -8 -55 -4 30
-7 218 -8 240 -2 309 1 312 11 3 7 4 147 2 312 -1 165 -4 260 -5 210z m-2
-341 l0 -87 -49 -48 -48 -49 -89 1 -89 0 42 17 c95 38 185 128 214 214 7 21
14 38 16 38 1 0 3 -39 3 -86z"/>
<path d="M7307 1063 c-30 -34 -31 -67 -2 -101 31 -37 61 -41 99 -11 33 26 36
79 6 109 -25 25 -81 26 -103 3z"/>
<path d="M1764 1060 c-99 -21 -194 -95 -246 -192 -20 -37 -23 -57 -23 -153 0
-103 2 -113 29 -160 62 -107 146 -168 258 -186 112 -18 223 18 303 97 l44 44
48 -48 c87 -87 164 -104 404 -87 l116 8 24 69 23 69 144 -3 144 -3 26 -67 26
-68 62 0 61 0 6 53 c14 114 61 367 68 360 4 -5 37 -99 74 -210 l67 -203 52 0
c52 0 53 1 69 37 9 21 41 116 73 210 31 95 60 171 64 168 4 -3 11 -31 15 -62
4 -32 18 -121 31 -198 13 -77 24 -143 24 -147 0 -5 29 -8 65 -8 l65 0 0 139
c0 77 3 142 8 145 4 2 36 6 71 7 l63 3 20 -60 c55 -162 187 -252 357 -242 188
11 324 154 325 343 1 102 -24 163 -95 240 -70 74 -134 106 -230 113 -93 6
-161 -15 -250 -80 -14 -9 -23 -7 -48 15 -49 41 -94 48 -287 45 l-177 -3 -76
-227 c-42 -124 -79 -229 -82 -232 -3 -4 -41 100 -84 229 l-78 235 -62 0 -62 0
-11 -62 c-6 -35 -21 -129 -33 -210 -13 -82 -25 -148 -29 -148 -5 0 -37 77
-128 315 l-38 100 -65 3 -64 2 -47 -122 c-26 -68 -66 -172 -89 -233 -44 -116
-67 -146 -143 -186 -132 -70 -301 -2 -342 137 -65 226 184 387 386 248 l50
-35 40 32 c22 18 40 36 40 40 0 17 -68 72 -116 95 -152 72 -321 45 -434 -71
l-42 -42 -44 47 c-76 81 -211 123 -320 100z m143 -125 c72 -21 137 -92 152
-167 24 -112 -21 -209 -124 -266 -48 -27 -160 -23 -208 7 -71 43 -103 87 -116
154 -18 99 22 202 96 249 64 39 124 46 200 23z m2544 3 c50 -17 107 -65 132
-112 30 -57 30 -155 0 -212 -42 -79 -118 -126 -202 -126 -94 0 -171 46 -214
126 -29 56 -29 154 1 213 25 47 83 100 127 112 44 13 117 13 156 -1z m-431
-28 c25 -25 26 -81 2 -103 -11 -10 -40 -17 -77 -19 l-60 -3 -3 73 -3 72 61 0
c47 0 64 -4 80 -20z m-1081 -151 c24 -60 41 -112 38 -115 -2 -3 -45 -3 -94 -2
l-90 3 44 113 c25 61 48 112 52 112 4 0 27 -50 50 -111z"/>
<path d="M7460 970 l0 -90 -80 0 -80 0 0 -155 c0 -210 -15 -245 -108 -245 -45
0 -77 28 -92 81 -6 19 -10 98 -10 176 l0 143 -60 0 c-56 0 -60 -1 -60 -23 l0
-24 -56 29 c-72 36 -130 37 -201 3 l-53 -24 3 22 c2 20 -3 22 -40 21 -25 0
-51 -8 -61 -17 -23 -21 -32 -21 -32 -2 0 12 -13 15 -60 15 -56 0 -60 -1 -60
-23 l0 -24 -56 29 c-99 49 -209 28 -275 -54 -42 -54 -58 -99 -59 -174 0 -89
23 -146 80 -197 82 -74 175 -85 268 -32 l42 24 0 -25 c0 -23 3 -24 60 -24 l60
0 0 153 c0 170 9 220 46 243 34 23 38 14 20 -40 -38 -112 -12 -230 64 -299 82
-74 175 -85 268 -32 l42 24 0 -115 0 -114 60 0 60 0 0 94 0 94 43 -10 c23 -5
65 -7 92 -3 28 4 83 6 123 5 l72 -1 0 200 c0 194 1 201 20 201 19 0 20 -7 20
-200 l0 -200 60 0 60 0 0 35 c0 19 3 35 6 35 3 0 19 -11 36 -25 84 -71 266
-68 344 6 l21 20 46 -31 c92 -62 223 -64 321 -5 30 18 57 30 60 27 3 -3 6 -18
6 -34 0 -27 1 -28 55 -28 l55 0 0 40 c0 22 2 40 5 40 3 0 24 -15 48 -33 85
-65 182 -72 283 -21 l51 26 40 -26 c133 -88 312 1 288 144 -9 51 -40 82 -135
134 -74 41 -96 69 -68 87 23 15 59 10 95 -12 l35 -22 36 36 35 36 -32 30 c-73
68 -196 67 -260 -2 l-24 -26 -31 24 c-69 53 -158 68 -237 40 -28 -10 -45 -12
-47 -5 -2 5 -21 10 -43 10 l-39 0 0 90 0 90 -55 0 -54 0 -3 -87 -3 -88 -30 -3
c-16 -2 -32 -8 -35 -13 -3 -4 -28 -2 -54 6 -95 29 -207 10 -271 -46 l-35 -31
-40 32 c-66 52 -161 73 -238 51 -18 -6 -55 -7 -83 -4 l-49 6 0 88 0 89 -60 0
-60 0 0 -90z m377 -191 c34 -12 83 -58 83 -76 0 -10 -30 -13 -135 -13 -148 0
-158 5 -107 53 47 45 103 58 159 36z m-1502 -9 c14 -5 37 -22 50 -36 22 -23
25 -37 25 -95 0 -81 -10 -107 -54 -137 -62 -43 -157 -23 -196 41 -24 39 -27
125 -5 168 31 58 112 85 180 59z m570 -6 c45 -21 61 -48 68 -116 10 -100 -44
-168 -133 -168 -87 0 -140 56 -140 148 0 29 7 66 15 83 33 63 119 87 190 53z
m1401 -13 l27 -21 34 20 c19 11 39 18 44 15 10 -7 13 -268 2 -278 -3 -4 -22 5
-41 20 -28 21 -38 24 -51 14 -89 -64 -215 -50 -256 29 -20 39 -19 125 2 161
10 16 35 38 58 50 52 26 141 21 181 -10z m501 12 c61 -29 90 -123 59 -196 -23
-55 -69 -87 -128 -87 -45 0 -54 4 -88 38 -61 60 -66 150 -13 213 44 51 105 63
170 32z m316 -211 c21 -19 22 -36 1 -56 -24 -25 -78 -20 -113 10 -25 21 -29
30 -25 57 11 60 10 59 66 31 29 -14 61 -33 71 -42z m-1193 23 c5 -14 13 -37
16 -52 6 -23 5 -24 -15 -14 -18 10 -27 8 -53 -10 -68 -49 -177 -31 -218 36
-39 63 -36 65 120 65 l140 0 10 -25z"/>
</g>
</svg>
